#!OML:ASF F:\VICON\USERDATA\INSTALL\rory3\rory3.ASF
:FULLY-SPECIFIED
:DEGREES
1
root 1.3189099999999985 18.0284 -29.617100000000057 -4.138780000000003 -2.1590999999999996 0.29680899999999744
lfemur -8.90444 -0.6554220000000031 -23.566499999999994
ltibia 22.346899999999977
lfoot -11.91240000000001 -5.416100000000006
ltoes -5.1898599999999995
rfemur -18.21760000000001 -0.6707299999999936 21.420400000000008
rtibia 71.20659999999995
rfoot -3.3122699999999874 -3.336200000000003
rtoes 1.080269999999997
lowerback 1.0 0.681932999999999 -0.9316759999999975
upperback 1.250460000000001 0.8239149999999995 0.7031870000000003
thorax -5.25749 0.4318669999999998 1.1299
lowerneck -16.1754 -2.80102 -1.5538100000000001
upperneck 24.921099999999996 -3.28504 -0.9240670000000001
head 10.699200000000001 -1.76434 -0.5248400000000006
lclavicle 1.0026200000000027e-14 1.789059999999999e-14
lhumerus -32.935300000000005 3.843470000000001 81.335
lradius 19.8658
lwrist 0.6037910000000029
lhand -28.1092 20.43240000000001
lfingers 7.12502
lthumb -1.4913399999999997 50.407000000000004
rclavicle 1.0026200000000027e-14 1.789059999999999e-14
rhumerus -25.651600000000002 -20.4504 -78.3443
rradius 26.959599999999995
rwrist 4.537950000000002
rhand -18.0902 1.0
rfingers 7.12502
rthumb 8.18329 -6.042280000000002
2
root 1.3221300000000018 18.0092 -29.146900000000052 -3.969680000000002 -0.7980729999999993 0.46421000000000134
lfemur -7.864799999999997 -0.6898910000000011 -23.84299999999999
ltibia 23.141000000000005
lfoot -14.267700000000005 -5.935319999999991
ltoes -5.214920000000001
rfemur -21.43599999999999 -1.7894200000000087 21.349199999999996
rtibia 70.0571
rfoot -6.122659999999994 -3.4364300000000028
rtoes 1.5335999999999985
lowerback 1.0 0.4559659999999997 -1.0832900000000016
upperback 1.730629999999997 0.4965459999999998 0.5310510000000019
thorax -4.704750000000001 0.266678 1.08901
lowerneck -18.383999999999997 -3.1330800000000005 -0.8715440000000008
upperneck 25.397200000000005 -3.9306100000000006 -0.9042359999999979
head 11.292999999999997 -1.9804999999999997 -0.7729290000000004
lclavicle -1.3045200000000005e-14 -7.752600000000008e-15
lhumerus -29.8486 0.7709170000000007 81.8539
lradius 20.7066
lwrist 1.930619999999999
lhand -28.121 22.6005
lfingers 7.12502
lthumb -1.5028200000000007 52.5749
rclavicle -1.3045200000000005e-14 -7.752600000000008e-15
rhumerus -26.075599999999998 -21.8216 -78.4613
rradius 27.375200000000003
rwrist 3.906970000000001
rhand -18.2737 1.0
rfingers 7.12502
rthumb 8.00615 -6.287699999999998
3
root 1.3203500000000008 17.9668 -28.687100000000093 -4.111039999999999 0.1295250000000021 0.7459800000000039
lfemur -6.58417 -0.43754499999999963 -24.16359999999999
ltibia 24.20910000000001
lfoot -16.852100000000014 -6.260769999999994
ltoes -7.050800000000001
rfemur -24.055199999999996 -2.5378799999999933 21.1599
rtibia 67.63619999999995
rfoot -8.115 -4.431329999999999
rtoes 0.5116150000000066
lowerback 1.0 -0.28615800000000036 -2.1851699999999967
upperback 0.887442000000001 -0.6019019999999986 1.2004100000000009
thorax -5.814030000000001 -0.22524099999999903 2.598539999999998
lowerneck -14.8509 -2.76349 -1.93038
upperneck 24.233400000000003 -3.15941 -0.9378039999999987
head 10.1994 -1.74691 -0.41870399999999963
lclavicle -1.5033099999999966e-14 -3.975690000000001e-15
lhumerus -30.6889 0.3133259999999929 82.3519
lradius 22.6234
lwrist 3.20213
lhand -27.7808 24.3588
lfingers 7.12502
lthumb -1.1742499999999996 54.3353
rclavicle -1.5033099999999966e-14 -3.975690000000001e-15
rhumerus -28.6951 -19.820699999999995 -77.4095
rradius 27.511599999999994
rwrist 3.1149399999999963
rhand -17.6052 1.0
rfingers 7.12502
rthumb 8.6513 -5.5245399999999965
4
root 1.3272600000000012 17.9146 -28.204199999999965 -3.984510000000002 1.0039400000000052 1.3552799999999996
lfemur -5.072799999999992 -0.29399699999999696 -24.831099999999992
ltibia 24.414400000000015
lfoot -18.755800000000008 -7.034520000000009
ltoes -5.920210000000003
rfemur -26.3729 -3.1637600000000123 20.573
rtibia 64.04430000000004
rfoot -9.883980000000001 -5.953769999999999
rtoes 1.4433799999999963
lowerback 1.0 -0.9299699999999997 -3.2407400000000046
upperback 0.4832740000000002 -1.5795299999999963 1.51819
thorax -6.060569999999999 -0.6625719999999995 3.6989500000000044
lowerneck -13.186800000000007 -2.445520000000001 -2.728969999999999
upperneck 23.686799999999998 -2.6217399999999995 -0.7253670000000003
head 9.70103 -1.5479299999999996 -0.111592
lclavicle -4.23907999999999e-14 -2.782989999999997e-15
lhumerus -30.3882 -0.6227529999999994 82.746
lradius 24.552
lwrist 3.9995900000000004
lhand -27.5007 30.650199999999995
lfingers 7.12502
lthumb -0.9036789999999999 60.62799999999999
rclavicle -4.23907999999999e-14 -2.782989999999997e-15
rhumerus -30.2457 -18.475599999999993 -76.8282
rradius 27.408799999999992
rwrist 2.9461200000000014
rhand -18.1988 1.0
rfingers 7.12502
rthumb 8.07845 -6.409420000000002
5
root 1.3186699999999996 17.8786 -27.730099999999965 -3.852610000000002 1.8215100000000006 2.0108600000000005
lfemur -3.3090499999999974 -0.11662000000000194 -25.483800000000006
ltibia 23.985299999999974
lfoot -20.308300000000013 -7.501909999999993
ltoes -6.411369999999998
rfemur -28.1436 -3.406259999999982 19.933100000000003
rtibia 59.24960000000004
rfoot -11.303499999999996 -7.747239999999998
rtoes 1.038789999999997
lowerback 1.0 -0.7521250000000006 -3.4876100000000085
upperback 1.1356500000000003 -1.4030499999999988 0.9447290000000009
thorax -5.39041 -0.6021709999999988 3.190650000000004
lowerneck -15.8097 -2.84201 -1.6273599999999995
upperneck 23.999 -3.411 -0.6245530000000004
head 10.2987 -1.79484 -0.40561499999999984
lclavicle -2.6339000000000005e-15 1.5902799999999967e-15
lhumerus -27.097699999999993 -4.091909999999993 82.4857
lradius 26.256800000000002
lwrist 5.932759999999997
lhand -27.7143 24.4953
lfingers 7.12502
lthumb -1.1099800000000002 54.4722
rclavicle -2.6339000000000005e-15 1.5902799999999967e-15
rhumerus -30.3207 -21.3659 -76.7143
rradius 27.162
rwrist 3.0625099999999947
rhand -17.7755 1.0
rfingers 7.12502
rthumb 8.48698 -5.875900000000001
6
root 1.3130099999999985 17.8586 -27.2491 -3.4403900000000007 2.063080000000003 2.3189199999999945
lfemur -1.5295200000000122 0.04462259999999896 -25.7876
ltibia 23.138200000000012
lfoot -20.841600000000007 -7.70097
ltoes -4.23648
rfemur -29.72930000000001 -2.9167999999999914 19.647700000000015
rtibia 53.10520000000002
rfoot -10.594400000000002 -9.67393
rtoes 1.0345100000000018
lowerback 1.0 -0.8503250000000024 -3.788650000000002
upperback 1.0164399999999993 -1.5771400000000002 0.9659259999999992
thorax -5.5447 -0.674943999999999 3.416220000000002
lowerneck -16.394 -2.90674 -1.76096
upperneck 24.3161 -3.45761 -0.6142320000000012
head 10.5303 -1.82531 -0.39993699999999965
lclavicle 4.4974999999999844e-15 6.3611100000000155e-15
lhumerus -25.4444 -4.979019999999996 81.9665
lradius 27.645300000000006
lwrist 5.932000000000003
lhand -28.6973 21.8876
lfingers 7.12502
lthumb -2.059359999999999 51.8574
rclavicle 4.4974999999999844e-15 6.3611100000000155e-15
rhumerus -31.316499999999998 -22.7398 -75.8603
rradius 26.617800000000003
rwrist 3.639479999999999
rhand -17.5135 1.0
rfingers 7.12502
rthumb 8.73988 -5.982130000000003
